<svg xmlns="http://www.w3.org/2000/svg" width="64" height="64" viewBox="0 0 256 256" version="1.1">	<path d="M 90.609 83.250 C 88.644 85.017, 85.163 94.406, 74.388 126.992 C 59.341 172.503, 58.615 174, 51.585 174 C 49.100 174, 47.638 173.393, 46.768 172 C 46.081 170.900, 44.502 170, 43.259 170 C 41.422 170, 41 170.553, 41 172.965 C 41 177.685, 48.387 180.687, 55.560 178.881 C 62.896 177.033, 64.825 173.950, 71.623 153.194 L 77.747 134.500 96.123 134.500 L 114.500 134.500 120.500 152.580 C 127.093 172.446, 128.472 175.156, 133.259 177.641 C 141.891 182.121, 155.057 176.563, 150.517 170.354 C 149.334 168.736, 149.025 168.802, 146.046 171.308 C 142.225 174.523, 138.233 174.758, 134.695 171.974 C 132.557 170.293, 129.722 162.695, 118 127.224 C 107.440 95.269, 103.329 84.065, 101.691 82.772 C 98.594 80.330, 93.618 80.544, 90.609 83.250 M 94.081 87.402 C 93.018 88.684, 80 126.420, 80 128.221 C 80 128.650, 87.200 129, 96 129 C 108.326 129, 112 128.706, 112 127.721 C 112 127.018, 109.081 117.710, 105.513 107.038 C 98.588 86.326, 97.098 83.767, 94.081 87.402 M 127.500 107 C 125.864 109.647, 129.052 110, 154.559 110 C 180.333 110, 181 109.950, 181 108 C 181 106.050, 180.333 106, 154.559 106 C 138.010 106, 127.887 106.374, 127.500 107 M 127 117.500 C 127 118.789, 130.167 119, 149.500 119 C 168.833 119, 172 118.789, 172 117.500 C 172 116.211, 168.833 116, 149.500 116 C 130.167 116, 127 116.211, 127 117.500 M 127.188 127.750 C 127.465 129.203, 128.795 129.544, 135.011 129.756 C 142.606 130.017, 145.815 129.128, 144.569 127.112 C 144.152 126.437, 140.536 126, 135.368 126 C 127.798 126, 126.890 126.194, 127.188 127.750 M 177.274 127.250 C 176.740 127.938, 172.630 138.809, 168.141 151.410 C 160.457 172.978, 160.069 174.456, 161.513 176.660 C 163.370 179.494, 167.986 179.807, 170.217 177.250 C 171.056 176.287, 172.517 173.121, 173.464 170.214 L 175.185 164.927 184.249 165.214 L 193.314 165.500 195.139 170.876 C 197.515 177.876, 198.553 179, 202.644 179 C 205.294 179, 206.292 178.452, 207.175 176.514 C 208.158 174.358, 207.212 171.009, 200.042 151.264 C 195.496 138.744, 191.322 127.938, 190.766 127.250 C 190.169 126.512, 187.398 126, 184 126 C 180.580 126, 177.851 126.507, 177.274 127.250 M 180.264 130.182 C 178.834 131.905, 165.108 169.933, 164.757 173.142 C 164.589 174.686, 165.018 175.500, 166 175.500 C 166.956 175.500, 168.288 173.144, 169.675 169 L 171.851 162.500 184 162.500 L 196.149 162.500 198.325 169 C 199.764 173.302, 201.092 175.609, 202.250 175.823 C 203.393 176.034, 204.003 175.514, 204.010 174.323 C 204.018 172.917, 189.430 131.525, 188.463 130.207 C 188.345 130.046, 186.709 129.665, 184.828 129.359 C 182.564 128.992, 181.020 129.270, 180.264 130.182 M 181.904 135.669 C 179.802 141.038, 174 157.100, 174 157.550 C 174 157.797, 178.530 158, 184.067 158 C 195.743 158, 195.119 159.797, 189.084 143.565 C 187.053 138.101, 184.856 133.452, 184.202 133.234 C 183.548 133.016, 182.514 134.112, 181.904 135.669 M 181.092 147.194 C 179.941 150.601, 179 153.751, 179 154.194 C 179 154.637, 181.250 155, 184 155 C 186.750 155, 189.005 154.662, 189.010 154.250 C 189.033 152.569, 184.577 141, 183.907 141 C 183.509 141, 182.242 143.787, 181.092 147.194" stroke="none" fill="white" fill-rule="evenodd"></path></svg>